<svg aria-hidden="true" style="width:0;height:0;position:absolute;overflow:hidden" xmlns="http://www.w3.org/2000/svg"><defs><symbol id="icon-telegram" viewBox="0 0 40 32"><path fill="#fff" style="fill:var(--color1,#fff)" d="m16.206 20.75-.636 8.338c.908 0 1.302-.364 1.774-.802l4.26-3.8 8.83 6.034c1.62.842 2.76.398 3.196-1.39l5.796-25.344.002-.002c.514-2.234-.866-3.108-2.444-2.56L2.92 13.398c-2.324.842-2.29 2.052-.396 2.6l8.71 2.528 20.23-11.814c.952-.588 1.818-.262 1.106.326L16.206 20.752z"/></symbol><symbol id="icon-facebook" viewBox="0 0 16 32"><path fill="#fff" style="fill:var(--color1,#fff)" d="M14.266 15.97H10.09v15.39H3.762V15.97H.754v-5.408h3.01V7.063C3.762 4.559 4.945.641 10.146.641l4.686.019v5.25h-3.4c-.558 0-1.342.28-1.342 1.474v3.182h4.728l-.554 5.403z"/></symbol><symbol id="icon-github" viewBox="0 0 32 32"><path fill="#fff" style="fill:var(--color1,#fff)" d="M16 .941C7.73.941.941 7.73.941 16c0 7.058 4.952 13.47 11.53 15.059v-4.982a3.694 3.694 0 0 1-1.942-.055l.026.007c-.89-.262-1.613-.856-2.15-1.76-.342-.578-.949-1.203-1.581-1.157l-.155-1.758c1.368-.117 2.552.834 3.254 2.013.312.525.67.832 1.133.968.445.131.923.069 1.482-.13.139-1.115.651-1.534 1.037-2.122-3.922-.586-5.485-2.666-6.106-4.309-.822-2.181-.381-4.906 1.074-6.627.029-.034.08-.122.059-.182-.667-2.013.146-3.68.176-3.856.77.227.894-.229 3.342 1.258l.422.254c.178.106.122.045.298.032A12.865 12.865 0 0 1 16 8.208c1.069.014 2.139.166 3.203.456l.138.014c-.013-.002.037-.008.12-.058 3.058-1.851 2.947-1.246 3.768-1.514.029.178.83 1.87.171 3.858-.09.274 2.65 2.782 1.133 6.81-.621 1.643-2.184 3.725-6.106 4.309.502.766 1.107 1.174 1.104 2.755v6.219c6.578-1.589 11.53-8 11.53-15.059C31.059 7.729 24.272.94 16 .94z"/></symbol><symbol id="icon-arrow-right" viewBox="0 0 32 32"><path d="m19.414 27.414 10-10a2 2 0 0 0 0-2.828l-10-10a2 2 0 1 0-2.828 2.828L23.172 14H4a2 2 0 1 0 0 4h19.172l-6.586 6.586c-.39.39-.586.902-.586 1.414s.195 1.024.586 1.414a2 2 0 0 0 2.828 0z"/></symbol><symbol id="icon-burger-menu" viewBox="0 0 48 32"><path d="M0 5.334V0h48v5.334H0zm0 13.332h48v-5.332H0v5.332zM0 32h48v-5.334H0V32z"/></symbol><symbol id="icon-arrow-buy" viewBox="0 0 32 32"><path d="m6.667 4 4.076-4 15.924 16-15.924 16-4.076-4 12-12z"/></symbol><symbol id="icon-arrow" viewBox="0 0 24 24"><path d="m5.859 4.125 2.156-2.109L17.999 12l-9.984 9.984-2.156-2.109L13.781 12z"/></symbol><symbol id="icon-close-2" viewBox="0 0 32 32"><path stroke-width="2" d="m2.52 2 26.96 28M2 29.48 30 2.52"/></symbol><symbol id="icon-scroll-up" viewBox="0 0 32 32"><path d="M9.333 4.943V14a.667.667 0 1 1-1.334 0V4.943L6.47 6.472a.668.668 0 0 1-.943-.943l2.667-2.667c.26-.26.682-.26.943 0l2.667 2.667a.668.668 0 0 1-.943.943L9.332 4.943zm9.334 7.724v3.397a1.886 1.886 0 0 1-3.093 1.448l-1.232-1.026A2.095 2.095 0 0 0 13.001 16a.924.924 0 0 0-.833.523l-.048.099c-.18.374-.126.82.14 1.139l5.885 7.093a5.011 5.011 0 0 0 3.856 1.811 6 6 0 0 0 6-6v-5.333a.667.667 0 1 0-1.334 0v1.333a.667.667 0 1 1-1.334 0v-2.667a.667.667 0 1 0-1.334 0v2.667a.667.667 0 1 1-1.334 0v-4a.667.667 0 1 0-1.334 0v4a.667.667 0 1 1-1.334 0V7.332a.667.667 0 1 0-1.334 0v5.333zm-1.334 0V7.334a2 2 0 1 1 4 0v3.447a2 2 0 0 1 2.597 1.359 2.005 2.005 0 0 1 2.667 1.333 2 2 0 0 1 2.737 1.86v5.333a7.333 7.333 0 0 1-7.333 7.333 6.344 6.344 0 0 1-4.882-2.293l-5.885-7.093a2.397 2.397 0 0 1-.315-2.569l.048-.099a2.257 2.257 0 0 1 2.034-1.279c.802 0 1.579.281 2.195.795l1.232 1.026a.552.552 0 0 0 .906-.425v-3.397z"/></symbol><symbol id="icon-close" viewBox="0 0 32 32"><path d="m26.667 7.303-1.97-1.97-7.808 7.808-7.808-7.808-1.97 1.97 7.808 7.808-7.808 7.808 1.97 1.97 7.808-7.808 7.808 7.808 1.97-1.97-7.808-7.808 7.808-7.808z"/></symbol><symbol id="icon-email" viewBox="0 0 32 32"><path d="M26.667 5.333H5.334A2.662 2.662 0 0 0 2.682 8l-.014 16c0 1.467 1.2 2.667 2.667 2.667h21.333c1.467 0 2.667-1.2 2.667-2.667V8c0-1.467-1.2-2.667-2.667-2.667zm-.534 5.668-9.426 5.892a1.343 1.343 0 0 1-1.421-.004l.006.003L5.866 11A1.133 1.133 0 1 1 7.07 9.083l-.004-.003 8.933 5.586 8.933-5.588a1.132 1.132 0 1 1 1.204 1.916l-.005.003z"/></symbol><symbol id="icon-person" viewBox="0 0 32 32"><path d="M16 16a5.333 5.333 0 1 0 0-10.666A5.333 5.333 0 1 0 16 16zm0 2.667c-3.561 0-10.667 1.787-10.667 5.333v1.333c0 .732.599 1.333 1.333 1.333h18.667c.732 0 1.333-.601 1.333-1.333V24c0-3.547-7.108-5.333-10.667-5.333z"/></symbol><symbol id="icon-phone" viewBox="0 0 32 32"><path d="m24.882 19.774-3.268-.373a2.552 2.552 0 0 0-2.11.732l-2.368 2.368c-3.669-1.894-6.585-4.81-8.427-8.372l-.051-.108 2.382-2.377a2.552 2.552 0 0 0 .731-2.122l.001.012-.373-3.243a2.578 2.578 0 0 0-2.557-2.276H6.613c-1.454 0-2.663 1.209-2.574 2.661.683 10.987 9.47 19.762 20.444 20.444 1.452.089 2.663-1.12 2.663-2.574v-2.238a2.549 2.549 0 0 0-2.253-2.532l-.012-.001z"/></symbol></defs></svg>