<svg aria-hidden="true" style="position: absolute; width: 0; height: 0; overflow: hidden;" version="1.1" xmlns="http://www.w3.org/2000/svg" xmlns:xlink="http://www.w3.org/1999/xlink">
<defs>
<symbol id="icon-telegram" viewBox="0 0 40 32">
<path fill="#fff" style="fill: var(--color1, #fff)" d="M16.206 20.75l-0.636 8.338c0.908 0 1.302-0.364 1.774-0.802l4.26-3.8 8.83 6.034c1.62 0.842 2.76 0.398 3.196-1.39l5.796-25.344 0.002-0.002c0.514-2.234-0.866-3.108-2.444-2.56l-34.064 12.174c-2.324 0.842-2.29 2.052-0.396 2.6l8.71 2.528 20.23-11.814c0.952-0.588 1.818-0.262 1.106 0.326l-16.364 13.714z"></path>
</symbol>
<symbol id="icon-facebook" viewBox="0 0 16 32">
<path fill="#fff" style="fill: var(--color1, #fff)" d="M14.266 15.97h-4.176v15.39h-6.328v-15.39h-3.008v-5.408h3.010v-3.499c-0.002-2.504 1.181-6.422 6.382-6.422l4.686 0.019v5.25h-3.4c-0.558 0-1.342 0.28-1.342 1.474v3.182h4.728l-0.554 5.403z"></path>
</symbol>
<symbol id="icon-github" viewBox="0 0 32 32">
<path fill="#fff" style="fill: var(--color1, #fff)" d="M16 0.941c-8.27 0-15.059 6.789-15.059 15.059 0 7.058 4.952 13.47 11.53 15.059v-4.982c-0.261 0.066-0.56 0.104-0.869 0.104-0.373 0-0.733-0.056-1.073-0.159l0.026 0.007c-0.89-0.262-1.613-0.856-2.15-1.76-0.342-0.578-0.949-1.203-1.581-1.157l-0.155-1.758c1.368-0.117 2.552 0.834 3.254 2.013 0.312 0.525 0.67 0.832 1.133 0.968 0.445 0.131 0.923 0.069 1.482-0.13 0.139-1.115 0.651-1.534 1.037-2.122v0c-3.922-0.586-5.485-2.666-6.106-4.309-0.822-2.181-0.381-4.906 1.074-6.627 0.029-0.034 0.080-0.122 0.059-0.182-0.667-2.013 0.146-3.68 0.176-3.856 0.77 0.227 0.894-0.229 3.342 1.258l0.422 0.254c0.178 0.106 0.122 0.045 0.298 0.032 1.022-0.277 2.099-0.43 3.16-0.445 1.069 0.014 2.139 0.166 3.203 0.456l0.138 0.014c-0.013-0.002 0.037-0.008 0.12-0.058 3.058-1.851 2.947-1.246 3.768-1.514 0.029 0.178 0.83 1.87 0.171 3.858-0.090 0.274 2.65 2.782 1.133 6.81-0.621 1.643-2.184 3.725-6.106 4.309v0c0.502 0.766 1.107 1.174 1.104 2.755v6.219c6.578-1.589 11.53-8 11.53-15.059-0.002-8.269-6.789-15.058-15.061-15.058v0z"></path>
</symbol>
<symbol id="icon-arrow-right" viewBox="0 0 32 32">
<path d="M19.414 27.414l10-10c0.781-0.781 0.781-2.047 0-2.828l-10-10c-0.781-0.781-2.047-0.781-2.828 0s-0.781 2.047 0 2.828l6.586 6.586h-19.172c-1.105 0-2 0.895-2 2s0.895 2 2 2h19.172l-6.586 6.586c-0.39 0.39-0.586 0.902-0.586 1.414s0.195 1.024 0.586 1.414c0.781 0.781 2.047 0.781 2.828 0z"></path>
</symbol>
<symbol id="icon-burger-menu" viewBox="0 0 48 32">
<path d="M0 5.334v-5.334h48v5.334h-48zM0 18.666h48v-5.332h-48v5.332zM0 32h48v-5.334h-48v5.334z"></path>
</symbol>
<symbol id="icon-arrow-buy" viewBox="0 0 32 32">
<path d="M6.667 4l4.076-4 15.924 16-15.924 16-4.076-4 12-12z"></path>
</symbol>
<symbol id="icon-arrow" viewBox="0 0 24 24">
<path d="M5.859 4.125l2.156-2.109 9.984 9.984-9.984 9.984-2.156-2.109 7.922-7.875z"></path>
</symbol>
<symbol id="icon-close-2" viewBox="0 0 32 32">
<path  stroke-linejoin="miter" stroke-linecap="butt" stroke-miterlimit="4" stroke-width="2" d="M2.52 2l26.96 28M2 29.48l28-26.96"></path>
</symbol>
<symbol id="icon-scroll-up" viewBox="0 0 32 32">
<path d="M9.333 4.943v9.057c0 0.368-0.298 0.667-0.667 0.667s-0.667-0.298-0.667-0.667v-9.057l-1.529 1.529c-0.26 0.26-0.682 0.26-0.943 0s-0.26-0.682 0-0.943l2.667-2.667c0.26-0.26 0.682-0.26 0.943 0l2.667 2.667c0.26 0.26 0.26 0.682 0 0.943s-0.682 0.26-0.943 0l-1.529-1.529zM18.667 12.667v3.397c0 0.441-0.155 0.868-0.437 1.207-0.667 0.8-1.856 0.908-2.656 0.241l-1.232-1.026c-0.377-0.314-0.851-0.486-1.341-0.486-0.355 0-0.679 0.203-0.833 0.523l-0.048 0.099c-0.18 0.374-0.126 0.82 0.14 1.139l5.885 7.093c0.952 1.147 2.365 1.811 3.856 1.811 3.314 0 6-2.686 6-6v-5.333c0-0.368-0.298-0.667-0.667-0.667s-0.667 0.298-0.667 0.667v1.333c0 0.368-0.298 0.667-0.667 0.667s-0.667-0.298-0.667-0.667v-2.667c0-0.368-0.298-0.667-0.667-0.667s-0.667 0.298-0.667 0.667v2.667c0 0.368-0.298 0.667-0.667 0.667s-0.667-0.298-0.667-0.667v-4c0-0.368-0.298-0.667-0.667-0.667s-0.667 0.298-0.667 0.667v4c0 0.368-0.298 0.667-0.667 0.667s-0.667-0.298-0.667-0.667v-9.333c0-0.368-0.298-0.667-0.667-0.667s-0.667 0.298-0.667 0.667v5.333zM17.333 12.667v-5.333c0-1.105 0.895-2 2-2s2 0.895 2 2v3.447c0.209-0.074 0.433-0.114 0.667-0.114 0.922 0 1.699 0.624 1.93 1.473 0.228-0.090 0.477-0.14 0.737-0.14 0.922 0 1.699 0.624 1.93 1.473 0.228-0.090 0.477-0.14 0.737-0.14 1.105 0 2 0.895 2 2v5.333c0 4.050-3.283 7.333-7.333 7.333-1.888 0-3.677-0.841-4.882-2.293l-5.885-7.093c-0.598-0.721-0.721-1.725-0.315-2.569l0.048-0.099c0.376-0.782 1.167-1.279 2.034-1.279 0.802 0 1.579 0.281 2.195 0.795l1.232 1.026c0.235 0.195 0.583 0.164 0.778-0.071 0.083-0.099 0.128-0.225 0.128-0.354v-3.397z"></path>
</symbol>
<symbol id="icon-close" viewBox="0 0 32 32">
<path d="M26.667 7.303l-1.97-1.97-7.808 7.808-7.808-7.808-1.97 1.97 7.808 7.808-7.808 7.808 1.97 1.97 7.808-7.808 7.808 7.808 1.97-1.97-7.808-7.808 7.808-7.808z"></path>
</symbol>
<symbol id="icon-email" viewBox="0 0 32 32">
<path d="M26.667 5.333h-21.333c-1.467 0-2.652 1.2-2.652 2.667l-0.014 16c0 1.467 1.2 2.667 2.667 2.667h21.333c1.467 0 2.667-1.2 2.667-2.667v-16c0-1.467-1.2-2.667-2.667-2.667zM26.133 11.001l-9.426 5.892c-0.201 0.126-0.446 0.2-0.708 0.2s-0.506-0.075-0.713-0.204l0.006 0.003-9.426-5.892c-0.336-0.201-0.557-0.562-0.557-0.975 0-0.625 0.507-1.132 1.132-1.132 0.233 0 0.449 0.070 0.629 0.19l-0.004-0.003 8.933 5.586 8.933-5.588c0.176-0.118 0.392-0.188 0.624-0.188 0.625 0 1.132 0.507 1.132 1.132 0 0.413-0.221 0.775-0.552 0.972l-0.005 0.003z"></path>
</symbol>
<symbol id="icon-person" viewBox="0 0 32 32">
<path d="M16 16c2.946 0 5.333-2.388 5.333-5.333s-2.388-5.333-5.333-5.333v0c-2.946 0-5.333 2.388-5.333 5.333s2.388 5.333 5.333 5.333v0zM16 18.667c-3.561 0-10.667 1.787-10.667 5.333v1.333c0 0.732 0.599 1.333 1.333 1.333h18.667c0.732 0 1.333-0.601 1.333-1.333v-1.333c0-3.547-7.108-5.333-10.667-5.333z"></path>
</symbol>
<symbol id="icon-phone" viewBox="0 0 32 32">
<path d="M24.882 19.774l-3.268-0.373c-0.090-0.011-0.194-0.018-0.3-0.018-0.707 0-1.347 0.287-1.81 0.75l-2.368 2.368c-3.669-1.894-6.585-4.81-8.427-8.372l-0.051-0.108 2.382-2.377c0.463-0.463 0.75-1.103 0.75-1.81 0-0.106-0.006-0.21-0.019-0.312l0.001 0.012-0.373-3.243c-0.155-1.287-1.24-2.276-2.557-2.276-0.001 0-0.002 0-0.003 0h-2.226c-1.454 0-2.663 1.209-2.574 2.661 0.683 10.987 9.47 19.762 20.444 20.444 1.452 0.089 2.663-1.12 2.663-2.574v-2.226c0-0.004 0-0.008 0-0.012 0-1.308-0.985-2.386-2.253-2.532l-0.012-0.001z"></path>
</symbol>
</defs>
</svg>